<?xml version="1.0" standalone="no"?>
<!DOCTYPE svg PUBLIC "-//W3C//DTD SVG 20010904//EN"
 "http://www.w3.org/TR/2001/REC-SVG-20010904/DTD/svg10.dtd">
<svg version="1.0" xmlns="http://www.w3.org/2000/svg"
 width="500.000000pt" height="500.000000pt" viewBox="0 0 500.000000 500.000000"
 preserveAspectRatio="xMidYMid meet">

<g transform="translate(0.000000,500.000000) scale(0.100000,-0.100000)"
fill="#000000" stroke="none">
<path d="M3360 4723 c-114 -18 -247 -61 -361 -117 -167 -83 -181 -95 -1377
-1295 -628 -630 -1150 -1159 -1159 -1176 -26 -46 -23 -131 7 -182 24 -43 75
-85 119 -98 21 -6 8 -22 -162 -194 -186 -188 -210 -218 -222 -282 -15 -79 39
-174 120 -210 88 -40 153 -21 255 77 l78 74 26 -54 c26 -53 85 -106 118 -106
9 0 19 -4 22 -8 3 -5 -108 -120 -246 -258 -159 -158 -257 -264 -269 -289 -21
-45 -24 -109 -8 -152 13 -35 64 -90 104 -110 36 -20 130 -21 165 -4 14 7 278
266 587 574 309 309 564 559 565 557 2 -3 13 -26 26 -53 23 -50 96 -107 136
-107 14 0 -107 -128 -395 -417 -363 -366 -417 -423 -428 -462 -13 -47 -7 -109
15 -152 29 -58 114 -109 179 -109 70 0 98 21 281 201 l181 180 11 -39 c14 -47
73 -107 119 -123 56 -18 136 -7 184 27 23 16 573 563 1223 1217 1007 1013
1190 1201 1243 1280 222 328 261 757 102 1120 -156 354 -478 609 -862 682 -73
14 -309 19 -377 8z m351 -83 c206 -29 460 -166 616 -333 218 -233 326 -571
282 -883 -23 -165 -85 -329 -176 -468 -35 -53 -348 -373 -1236 -1266 -654
-657 -1201 -1203 -1216 -1212 -64 -43 -156 -8 -181 67 -25 74 -34 63 651 750
352 352 639 647 639 656 0 20 -20 39 -41 39 -9 0 -400 -386 -869 -858 -469
-471 -862 -862 -874 -869 -81 -46 -189 38 -172 133 7 35 60 91 477 509 258
259 469 477 469 486 0 19 -20 39 -38 39 -8 0 -28 -10 -44 -22 -41 -29 -105
-29 -146 1 -51 36 -59 102 -20 170 25 44 19 72 -17 80 -13 2 -204 -183 -645
-624 -592 -592 -629 -627 -668 -632 -31 -4 -49 0 -75 16 -40 25 -57 58 -57
113 0 42 3 45 326 369 302 303 325 328 314 348 -17 33 -38 36 -71 12 -41 -31
-89 -37 -131 -17 -69 33 -88 114 -42 182 27 40 25 57 -9 78 -14 9 -38 -10
-144 -115 -71 -70 -139 -134 -153 -143 -80 -53 -194 32 -175 130 6 34 40 72
261 294 140 141 254 261 254 266 0 6 -9 19 -19 28 -19 17 -21 17 -64 -8 -74
-44 -150 -27 -182 40 -19 40 -19 67 -1 102 25 46 2325 2335 2386 2374 242 156
494 209 791 168z"/>
<path d="M3380 4574 c-259 -47 -441 -138 -604 -300 -137 -138 -231 -304 -279
-494 -27 -108 -30 -359 -6 -457 l16 -61 -764 -764 c-419 -419 -763 -770 -763
-778 0 -20 20 -40 39 -40 9 0 353 336 765 748 515 514 750 742 754 732 23 -64
105 -201 159 -269 104 -130 270 -258 401 -307 23 -9 42 -19 42 -23 0 -3 -200
-206 -445 -451 -245 -245 -445 -452 -445 -461 0 -9 9 -24 20 -34 21 -19 26
-14 489 449 l469 468 88 -16 c573 -105 1120 273 1219 843 94 534 -238 1049
-765 1188 -74 20 -125 26 -230 28 -74 2 -146 1 -160 -1z m293 -89 c590 -103
939 -700 741 -1269 -100 -288 -335 -508 -641 -603 -82 -25 -101 -27 -263 -27
-161 0 -182 3 -263 27 -304 93 -545 322 -643 611 -94 275 -62 571 88 817 70
115 215 257 332 326 193 114 428 157 649 118z"/>
<path d="M3453 4039 c-99 -29 -114 -177 -22 -225 56 -28 129 -11 163 40 9 14
16 45 16 70 0 65 -36 105 -110 121 -8 2 -29 -1 -47 -6z m83 -84 c33 -50 -14
-107 -71 -85 -55 21 -35 110 25 110 20 0 35 -8 46 -25z"/>
<path d="M4050 3963 c-19 -24 -21 -36 -16 -84 16 -156 132 -313 210 -283 23 9
46 57 46 97 0 85 -62 219 -128 274 -38 32 -85 30 -112 -4z m141 -150 c28 -61
40 -153 20 -153 -14 0 -59 65 -86 122 -16 34 -25 71 -25 102 l0 50 31 -30 c18
-16 45 -57 60 -91z"/>
<path d="M2934 3931 c-38 -24 -77 -74 -93 -120 -14 -43 -14 -144 0 -195 13
-49 80 -122 126 -137 72 -24 151 17 198 102 56 103 36 245 -45 324 -35 34 -46
39 -97 42 -45 3 -65 0 -89 -16z m134 -66 c42 -35 62 -84 62 -151 0 -142 -104
-222 -185 -141 -79 79 -69 245 18 297 43 26 69 25 105 -5z"/>
<path d="M3580 3645 c-81 -37 -124 -108 -118 -196 7 -98 74 -168 168 -177 207
-20 299 239 126 356 -45 30 -128 38 -176 17z m140 -71 c87 -52 77 -191 -17
-230 -99 -42 -207 57 -173 160 24 75 121 110 190 70z"/>
<path d="M4065 3331 c-64 -27 -78 -107 -26 -153 42 -38 83 -37 122 1 47 48 38
116 -21 146 -32 17 -45 18 -75 6z m62 -77 c7 -20 -22 -45 -43 -37 -14 5 -19
35 -7 46 12 13 44 7 50 -9z"/>
<path d="M3253 3043 c-32 -6 -73 -59 -73 -93 0 -89 81 -170 170 -170 112 0
137 142 40 223 -26 22 -93 50 -110 46 -3 -1 -15 -4 -27 -6z m103 -95 c70 -71
4 -145 -70 -80 -29 26 -46 73 -34 96 13 25 73 16 104 -16z"/>
<path d="M3895 3034 c-44 -23 -66 -45 -82 -83 -31 -74 21 -141 109 -141 61 0
111 23 144 65 26 34 32 91 14 126 -25 46 -125 64 -185 33z m119 -60 c22 -22
20 -41 -8 -69 -41 -41 -119 -46 -133 -9 -21 56 97 122 141 78z"/>
</g>
</svg>
